<svg width="174" height="48" viewBox="0 0 174 48" fill="none" xmlns="http://www.w3.org/2000/svg">
<path d="M0 23.575C0 10.5549 10.5549 0 23.575 0H149.613C162.633 0 173.188 10.5549 173.188 23.575C173.188 36.5951 162.633 47.15 149.613 47.15H23.575C10.5549 47.15 0 36.5951 0 23.575Z" fill="#038C73"/>
<mask id="path-3-inside-1" fill="white">
<path d="M86.8818 25.1268C84.1191 25.1268 81.9319 27.1958 81.9319 30.0694C81.9319 32.8281 84.1191 35.012 86.8818 35.012C89.6446 35.012 91.8318 32.943 91.8318 30.0694C91.8318 27.0808 89.6446 25.1268 86.8818 25.1268ZM86.8818 32.943C85.3853 32.943 84.1191 31.6786 84.1191 29.9544C84.1191 28.2303 85.3853 26.9659 86.8818 26.9659C88.3783 26.9659 89.6446 28.1153 89.6446 29.9544C89.6446 31.6786 88.3783 32.943 86.8818 32.943ZM76.1761 25.1268C73.4134 25.1268 71.2262 27.1958 71.2262 30.0694C71.2262 32.8281 73.4134 35.012 76.1761 35.012C78.9389 35.012 81.1261 32.943 81.1261 30.0694C81.1261 27.0808 78.9389 25.1268 76.1761 25.1268ZM76.1761 32.943C74.6796 32.943 73.4134 31.6786 73.4134 29.9544C73.4134 28.2303 74.6796 26.9659 76.1761 26.9659C77.6726 26.9659 78.9389 28.1153 78.9389 29.9544C78.9389 31.6786 77.6726 32.943 76.1761 32.943ZM63.3984 26.621V28.69H68.3483C68.2332 29.8395 67.7727 30.7591 67.1972 31.3338C66.5065 32.0234 65.3553 32.8281 63.3984 32.8281C60.2903 32.8281 57.988 30.4142 57.988 27.3107C57.988 24.2072 60.4054 21.7934 63.3984 21.7934C65.01 21.7934 66.2762 22.483 67.1972 23.2877L68.6937 21.7934C67.4274 20.6439 65.8158 19.7244 63.5135 19.7244C59.3693 19.7244 55.8008 23.1727 55.8008 27.3107C55.8008 31.4487 59.3693 34.8971 63.5135 34.8971C65.8158 34.8971 67.4274 34.2074 68.8088 32.7131C70.1902 31.3338 70.6506 29.3797 70.6506 27.8854C70.6506 27.4257 70.6506 26.9659 70.5355 26.621H63.3984ZM115.661 28.2303C115.2 27.0808 114.049 25.1268 111.516 25.1268C108.984 25.1268 106.912 27.0808 106.912 30.0694C106.912 32.8281 108.984 35.012 111.747 35.012C113.934 35.012 115.315 33.6327 115.776 32.8281L114.164 31.6786C113.588 32.4832 112.898 33.0579 111.747 33.0579C110.595 33.0579 109.905 32.5982 109.329 31.5637L115.891 28.805L115.661 28.2303ZM108.984 29.8395C108.984 28.0004 110.48 26.9659 111.516 26.9659C112.322 26.9659 113.128 27.4257 113.358 28.0004L108.984 29.8395ZM103.573 34.5522H105.761V20.1841H103.573V34.5522ZM100.12 26.1613C99.5445 25.5865 98.6235 25.0118 97.4724 25.0118C95.055 25.0118 92.7527 27.1958 92.7527 29.9544C92.7527 32.7131 94.9399 34.7821 97.4724 34.7821C98.6235 34.7821 99.5445 34.2074 100.005 33.6327H100.12V34.3223C100.12 36.1615 99.084 37.196 97.4724 37.196C96.2061 37.196 95.2852 36.2764 95.055 35.4718L93.2131 36.2764C93.7887 37.5408 95.1701 39.15 97.5875 39.15C100.12 39.15 102.192 37.6557 102.192 34.0924V25.3567H100.12V26.1613ZM97.5875 32.943C96.091 32.943 94.8247 31.6786 94.8247 29.9544C94.8247 28.2303 96.091 26.9659 97.5875 26.9659C99.084 26.9659 100.235 28.2303 100.235 29.9544C100.235 31.6786 99.084 32.943 97.5875 32.943ZM125.676 20.1841H120.495V34.5522H122.683V29.1498H125.676C128.093 29.1498 130.395 27.4257 130.395 24.667C130.395 21.9083 128.093 20.1841 125.676 20.1841ZM125.791 27.0808H122.683V22.1382H125.791C127.402 22.1382 128.323 23.5175 128.323 24.552C128.208 25.8164 127.287 27.0808 125.791 27.0808ZM139.029 25.0118C137.417 25.0118 135.806 25.7015 135.23 27.1958L137.187 28.0004C137.648 27.1958 138.338 26.9659 139.144 26.9659C140.295 26.9659 141.331 27.6555 141.446 28.805V28.9199C141.101 28.69 140.18 28.3452 139.259 28.3452C137.187 28.3452 135.115 29.4947 135.115 31.5637C135.115 33.5177 136.842 34.7821 138.684 34.7821C140.18 34.7821 140.871 34.0924 141.446 33.4028H141.561V34.5522H143.633V29.0349C143.403 26.5061 141.446 25.0118 139.029 25.0118ZM138.799 32.943C138.108 32.943 137.072 32.5982 137.072 31.6786C137.072 30.5292 138.338 30.1843 139.374 30.1843C140.295 30.1843 140.756 30.4142 141.331 30.6441C141.101 32.0234 139.95 32.943 138.799 32.943ZM150.886 25.3567L148.468 31.5637H148.353L145.821 25.3567H143.518L147.317 34.0924L145.13 38.9201H147.317L153.188 25.3567H150.886ZM131.546 34.5522H133.734V20.1841H131.546V34.5522Z"/>
</mask>
<path d="M86.8818 25.1268C84.1191 25.1268 81.9319 27.1958 81.9319 30.0694C81.9319 32.8281 84.1191 35.012 86.8818 35.012C89.6446 35.012 91.8318 32.943 91.8318 30.0694C91.8318 27.0808 89.6446 25.1268 86.8818 25.1268ZM86.8818 32.943C85.3853 32.943 84.1191 31.6786 84.1191 29.9544C84.1191 28.2303 85.3853 26.9659 86.8818 26.9659C88.3783 26.9659 89.6446 28.1153 89.6446 29.9544C89.6446 31.6786 88.3783 32.943 86.8818 32.943ZM76.1761 25.1268C73.4134 25.1268 71.2262 27.1958 71.2262 30.0694C71.2262 32.8281 73.4134 35.012 76.1761 35.012C78.9389 35.012 81.1261 32.943 81.1261 30.0694C81.1261 27.0808 78.9389 25.1268 76.1761 25.1268ZM76.1761 32.943C74.6796 32.943 73.4134 31.6786 73.4134 29.9544C73.4134 28.2303 74.6796 26.9659 76.1761 26.9659C77.6726 26.9659 78.9389 28.1153 78.9389 29.9544C78.9389 31.6786 77.6726 32.943 76.1761 32.943ZM63.3984 26.621V28.69H68.3483C68.2332 29.8395 67.7727 30.7591 67.1972 31.3338C66.5065 32.0234 65.3553 32.8281 63.3984 32.8281C60.2903 32.8281 57.988 30.4142 57.988 27.3107C57.988 24.2072 60.4054 21.7934 63.3984 21.7934C65.01 21.7934 66.2762 22.483 67.1972 23.2877L68.6937 21.7934C67.4274 20.6439 65.8158 19.7244 63.5135 19.7244C59.3693 19.7244 55.8008 23.1727 55.8008 27.3107C55.8008 31.4487 59.3693 34.8971 63.5135 34.8971C65.8158 34.8971 67.4274 34.2074 68.8088 32.7131C70.1902 31.3338 70.6506 29.3797 70.6506 27.8854C70.6506 27.4257 70.6506 26.9659 70.5355 26.621H63.3984ZM115.661 28.2303C115.2 27.0808 114.049 25.1268 111.516 25.1268C108.984 25.1268 106.912 27.0808 106.912 30.0694C106.912 32.8281 108.984 35.012 111.747 35.012C113.934 35.012 115.315 33.6327 115.776 32.8281L114.164 31.6786C113.588 32.4832 112.898 33.0579 111.747 33.0579C110.595 33.0579 109.905 32.5982 109.329 31.5637L115.891 28.805L115.661 28.2303ZM108.984 29.8395C108.984 28.0004 110.48 26.9659 111.516 26.9659C112.322 26.9659 113.128 27.4257 113.358 28.0004L108.984 29.8395ZM103.573 34.5522H105.761V20.1841H103.573V34.5522ZM100.12 26.1613C99.5445 25.5865 98.6235 25.0118 97.4724 25.0118C95.055 25.0118 92.7527 27.1958 92.7527 29.9544C92.7527 32.7131 94.9399 34.7821 97.4724 34.7821C98.6235 34.7821 99.5445 34.2074 100.005 33.6327H100.12V34.3223C100.12 36.1615 99.084 37.196 97.4724 37.196C96.2061 37.196 95.2852 36.2764 95.055 35.4718L93.2131 36.2764C93.7887 37.5408 95.1701 39.15 97.5875 39.15C100.12 39.15 102.192 37.6557 102.192 34.0924V25.3567H100.12V26.1613ZM97.5875 32.943C96.091 32.943 94.8247 31.6786 94.8247 29.9544C94.8247 28.2303 96.091 26.9659 97.5875 26.9659C99.084 26.9659 100.235 28.2303 100.235 29.9544C100.235 31.6786 99.084 32.943 97.5875 32.943ZM125.676 20.1841H120.495V34.5522H122.683V29.1498H125.676C128.093 29.1498 130.395 27.4257 130.395 24.667C130.395 21.9083 128.093 20.1841 125.676 20.1841ZM125.791 27.0808H122.683V22.1382H125.791C127.402 22.1382 128.323 23.5175 128.323 24.552C128.208 25.8164 127.287 27.0808 125.791 27.0808ZM139.029 25.0118C137.417 25.0118 135.806 25.7015 135.23 27.1958L137.187 28.0004C137.648 27.1958 138.338 26.9659 139.144 26.9659C140.295 26.9659 141.331 27.6555 141.446 28.805V28.9199C141.101 28.69 140.18 28.3452 139.259 28.3452C137.187 28.3452 135.115 29.4947 135.115 31.5637C135.115 33.5177 136.842 34.7821 138.684 34.7821C140.18 34.7821 140.871 34.0924 141.446 33.4028H141.561V34.5522H143.633V29.0349C143.403 26.5061 141.446 25.0118 139.029 25.0118ZM138.799 32.943C138.108 32.943 137.072 32.5982 137.072 31.6786C137.072 30.5292 138.338 30.1843 139.374 30.1843C140.295 30.1843 140.756 30.4142 141.331 30.6441C141.101 32.0234 139.95 32.943 138.799 32.943ZM150.886 25.3567L148.468 31.5637H148.353L145.821 25.3567H143.518L147.317 34.0924L145.13 38.9201H147.317L153.188 25.3567H150.886ZM131.546 34.5522H133.734V20.1841H131.546V34.5522Z" fill="white" stroke="white" stroke-width="2" mask="url(#path-3-inside-1)"/>
<path d="M20.5 10.2989C20.5 9.97234 20.5285 9.71189 20.5801 9.50829L34.3705 23.0597L20.7273 36.6828C20.5933 36.4389 20.5 36.1059 20.5 35.7017V10.2989Z" fill="white" stroke="white"/>
<path d="M39.6597 27.3838L35.3848 23.1153L39.6216 18.8847L45.0775 21.9978C45.7932 22.4061 46.034 22.871 46.034 23.2302C46.034 23.5886 45.7943 24.0521 45.0826 24.4597L39.6597 27.3838Z" fill="white" stroke="white"/>
<path d="M21.2603 37.3338L34.8498 23.7643L38.8689 27.7774L22.6518 37.094C22.0325 37.3654 21.5904 37.423 21.2603 37.3338Z" fill="white" stroke="white"/>
<path d="M22.6332 9.12582C22.6339 9.1262 22.6346 9.12659 22.6353 9.12697L38.8664 18.3406L34.8484 22.3527L21.2428 8.8759C21.3348 8.84233 21.431 8.82211 21.5321 8.8149C21.811 8.79501 22.1739 8.87139 22.6332 9.12582Z" fill="white" stroke="white"/>
<g opacity="0.2">
<mask id="path-8-inside-2" fill="white">
<path d="M39.5695 27.7705L22.8779 37.196C21.9569 37.7707 21.1511 37.6557 20.5756 37.196L20.4604 37.3109L20.5756 37.4259C21.1511 37.8856 21.9569 38.0006 22.8779 37.4259L39.5695 27.7705Z"/>
</mask>
<path d="M39.5695 27.7705L22.8779 37.196C21.9569 37.7707 21.1511 37.6557 20.5756 37.196L20.4604 37.3109L20.5756 37.4259C21.1511 37.8856 21.9569 38.0006 22.8779 37.4259L39.5695 27.7705Z" fill="white"/>
<path d="M39.5695 27.7705L40.0702 28.6361L39.0778 26.8997L39.5695 27.7705ZM22.8779 37.196L22.3862 36.3252L22.367 36.336L22.3484 36.3476L22.8779 37.196ZM20.5756 37.196L21.1997 36.4146L20.5014 35.8568L19.869 36.4883L20.5756 37.196ZM20.4604 37.3109L19.7539 36.6033L19.0452 37.3109L19.7539 38.0185L20.4604 37.3109ZM20.5756 37.4259L19.869 38.1335L19.9082 38.1726L19.9514 38.2072L20.5756 37.4259ZM22.8779 37.4259L22.3771 36.5602L22.3626 36.5686L22.3484 36.5775L22.8779 37.4259ZM39.0778 26.8997L22.3862 36.3252L23.3696 38.0667L40.0612 28.6413L39.0778 26.8997ZM22.3484 36.3476C22.0265 36.5485 21.7894 36.5903 21.6342 36.5846C21.4808 36.5789 21.3374 36.5247 21.1997 36.4146L19.9514 37.9773C20.3893 38.327 20.9366 38.5602 21.5603 38.5832C22.182 38.6062 22.8084 38.4181 23.4073 38.0443L22.3484 36.3476ZM19.869 36.4883L19.7539 36.6033L21.167 38.0185L21.2822 37.9036L19.869 36.4883ZM19.7539 38.0185L19.869 38.1335L21.2821 36.7182L21.167 36.6033L19.7539 38.0185ZM19.9514 38.2072C20.3893 38.5569 20.9366 38.79 21.5603 38.8131C22.182 38.8361 22.8084 38.648 23.4073 38.2742L22.3484 36.5775C22.0265 36.7784 21.7894 36.8202 21.6342 36.8145C21.4808 36.8088 21.3374 36.7546 21.1997 36.6445L19.9514 38.2072ZM23.3786 38.2915L40.0702 28.6361L39.0688 26.9049L22.3771 36.5602L23.3786 38.2915Z" fill="white" mask="url(#path-8-inside-2)"/>
</g>
<g opacity="0.12">
<mask id="path-10-inside-3" fill="white">
<path d="M20.4605 37.196C20.1151 36.8512 20 36.2765 20 35.5868V35.7017C20 36.3914 20.2302 36.9661 20.5756 37.311V37.196H20.4605Z"/>
</mask>
<path d="M20.4605 37.196C20.1151 36.8512 20 36.2765 20 35.5868V35.7017C20 36.3914 20.2302 36.9661 20.5756 37.311V37.196H20.4605Z" fill="white"/>
<path d="M20.4605 37.196L19.7539 37.9036L20.0467 38.196H20.4605V37.196ZM20.5756 37.311L19.869 38.0186L21.5756 39.7226V37.311H20.5756ZM20.5756 37.196H21.5756V36.196H20.5756V37.196ZM21.167 36.4884C21.1249 36.4463 21 36.2377 21 35.5868H19C19 36.3153 19.1054 37.2561 19.7539 37.9036L21.167 36.4884ZM19 35.5868V35.7017H21V35.5868H19ZM19 35.7017C19 36.597 19.2973 37.4477 19.869 38.0186L21.2822 36.6033C21.1632 36.4845 21 36.1858 21 35.7017H19ZM21.5756 37.311V37.196H19.5756V37.311H21.5756ZM20.5756 36.196H20.4605V38.196H20.5756V36.196Z" fill="white" mask="url(#path-10-inside-3)"/>
</g>
<g opacity="0.12">
<mask id="path-12-inside-4" fill="white">
<path d="M45.3253 24.552L39.5696 27.7705L39.6847 27.8854L45.3253 24.667C46.1311 24.2072 46.4765 23.6325 46.4765 23.0577C46.4765 23.6325 46.016 24.0922 45.3253 24.552Z"/>
</mask>
<path d="M45.3253 24.552L39.5696 27.7705L39.6847 27.8854L45.3253 24.667C46.1311 24.2072 46.4765 23.6325 46.4765 23.0577C46.4765 23.6325 46.016 24.0922 45.3253 24.552Z" fill="white"/>
<path d="M45.3253 24.552L45.8134 25.4248L45.8472 25.4059L45.8795 25.3844L45.3253 24.552ZM39.5696 27.7705L39.0815 26.8977L37.9268 27.5433L38.863 28.4781L39.5696 27.7705ZM39.6847 27.8854L38.9781 28.593L39.5178 29.132L40.1803 28.754L39.6847 27.8854ZM45.3253 24.667L44.8297 23.7984L44.8297 23.7984L45.3253 24.667ZM44.8373 23.6792L39.0815 26.8977L40.0576 28.6433L45.8134 25.4248L44.8373 23.6792ZM38.863 28.4781L38.9781 28.593L40.3913 27.1778L40.2762 27.0628L38.863 28.4781ZM40.1803 28.754L45.8209 25.5355L44.8297 23.7984L39.1891 27.0169L40.1803 28.754ZM45.8209 25.5355C46.8324 24.9584 47.4765 24.0991 47.4765 23.0577H45.4765C45.4765 23.1658 45.4299 23.456 44.8297 23.7984L45.8209 25.5355ZM45.4765 23.0577C45.4765 23.0633 45.4762 23.0709 45.469 23.0884C45.4604 23.1093 45.4391 23.1502 45.3884 23.2117C45.2792 23.3441 45.0861 23.51 44.7712 23.7196L45.8795 25.3844C46.5552 24.9346 47.4765 24.2093 47.4765 23.0577H45.4765Z" fill="white" mask="url(#path-12-inside-4)"/>
</g>
<g opacity="0.25">
<mask id="path-14-inside-5" fill="white">
<path d="M22.8779 8.80466L45.3253 21.5635C46.016 22.0233 46.4764 22.4831 46.4764 23.0578C46.4764 22.4831 46.1311 21.9084 45.3253 21.4486L22.8779 8.68972C21.2663 7.77016 20 8.45983 20 10.2989V10.4139C20 8.68972 21.2663 7.8851 22.8779 8.80466Z"/>
</mask>
<path d="M22.8779 8.80466L45.3253 21.5635C46.016 22.0233 46.4764 22.4831 46.4764 23.0578C46.4764 22.4831 46.1311 21.9084 45.3253 21.4486L22.8779 8.68972C21.2663 7.77016 20 8.45983 20 10.2989V10.4139C20 8.68972 21.2663 7.8851 22.8779 8.80466Z" fill="white"/>
<path d="M22.8779 8.80466L22.3823 9.67322L22.3837 9.67404L22.8779 8.80466ZM45.3253 21.5635L45.8794 20.7311L45.8501 20.7116L45.8194 20.6941L45.3253 21.5635ZM45.3253 21.4486L45.8209 20.58L45.8194 20.5792L45.3253 21.4486ZM22.8779 8.68972L22.3823 9.55828L22.3837 9.55909L22.8779 8.68972ZM22.3837 9.67404L44.8311 22.4329L45.8194 20.6941L23.372 7.93528L22.3837 9.67404ZM44.7712 22.3959C45.0861 22.6056 45.2792 22.7714 45.3884 22.9038C45.4391 22.9653 45.4604 23.0062 45.469 23.0271C45.4762 23.0446 45.4764 23.0522 45.4764 23.0578H47.4764C47.4764 21.9062 46.5552 21.1809 45.8794 20.7311L44.7712 22.3959ZM47.4764 23.0578C47.4764 22.0165 46.8323 21.1571 45.8209 20.58L44.8297 22.3171C45.4298 22.6596 45.4764 22.9497 45.4764 23.0578H47.4764ZM45.8194 20.5792L23.372 7.82034L22.3837 9.55909L44.8311 22.318L45.8194 20.5792ZM23.3735 7.82116C22.405 7.26856 21.2921 7.06249 20.3495 7.58536C19.3943 8.11523 19 9.17684 19 10.2989H21C21 9.58193 21.2388 9.37914 21.3197 9.33429C21.4131 9.28244 21.7391 9.19131 22.3823 9.55827L23.3735 7.82116ZM19 10.2989V10.4139H21V10.2989H19ZM21 10.4139C21 9.778 21.2251 9.5477 21.3379 9.48198C21.4461 9.41898 21.7686 9.32308 22.3823 9.67322L23.3735 7.9361C22.3755 7.36668 21.2591 7.21331 20.3313 7.75377C19.4081 8.29151 19 9.3256 19 10.4139H21Z" fill="white" mask="url(#path-14-inside-5)"/>
</g>
<path d="M56.9518 16.5059H56.146V14.2071H56.8367C57.4123 13.7473 57.7576 12.8277 57.7576 11.5633V8.11499H62.3622V14.2071H63.168V16.5059H62.3622V15.0117H57.0669V16.5059H56.9518ZM58.5634 11.5633C58.5634 12.5978 58.3332 13.5174 57.8727 14.2071H61.3262V8.9196H58.4483V11.5633H58.5634Z" fill="white" stroke="white" stroke-width="0.2" stroke-miterlimit="10"/>
<path d="M69.9597 14.0921C69.269 14.7817 68.4632 15.1266 67.4272 15.1266C66.3912 15.1266 65.5854 14.7817 64.8947 14.0921C64.204 13.4024 63.8586 12.5978 63.8586 11.5633C63.8586 10.5288 64.204 9.72417 64.8947 9.0345C65.5854 8.34483 66.3912 8 67.4272 8C68.4632 8 69.269 8.34483 69.9597 9.0345C70.6504 9.72417 70.9958 10.5288 70.9958 11.5633C70.9958 12.5978 70.6504 13.4024 69.9597 14.0921ZM65.5854 13.5173C66.0458 13.9771 66.7365 14.322 67.4272 14.322C68.1179 14.322 68.8086 14.0921 69.269 13.5173C69.7295 13.0576 70.0748 12.3679 70.0748 11.5633C70.0748 10.7587 69.8446 10.069 69.269 9.60923C68.8086 9.14945 68.1179 8.80461 67.4272 8.80461C66.7365 8.80461 66.0458 9.0345 65.5854 9.60923C65.1249 10.069 64.7796 10.7587 64.7796 11.5633C64.7796 12.3679 65.0098 13.0576 65.5854 13.5173Z" fill="white" stroke="white" stroke-width="0.2" stroke-miterlimit="10"/>
<path d="M75.4853 15.1266C74.4493 15.1266 73.6435 14.7817 72.9528 14.0921C72.2621 13.4024 71.9167 12.5978 71.9167 11.5633C71.9167 10.5288 72.2621 9.72417 72.9528 9.0345C73.6435 8.34483 74.4493 8 75.4853 8C76.5213 8 77.3272 8.34483 78.0178 9.14945L77.4423 9.72417C76.9818 9.14945 76.2911 8.80461 75.4853 8.80461C74.6795 8.80461 74.1039 9.0345 73.5284 9.60923C72.9528 10.069 72.7226 10.7587 72.7226 11.5633C72.7226 12.3679 72.9528 13.0576 73.5284 13.5173C73.9888 13.9771 74.6795 14.322 75.4853 14.322C76.2911 14.322 76.9818 13.9771 77.5574 13.2875L78.133 13.8622C77.7876 14.207 77.4423 14.5518 76.9818 14.7817C76.5213 15.0116 76.0609 15.1266 75.4853 15.1266Z" fill="white" stroke="white" stroke-width="0.2" stroke-miterlimit="10"/>
<path d="M81.8166 15.0117H80.8957V8.9196H78.9387V8.11499H83.6584V8.9196H81.7015V15.0117H81.8166Z" fill="white" stroke="white" stroke-width="0.2" stroke-miterlimit="10"/>
<path d="M89.7597 8.11499L87.112 13.9772C86.7667 14.7818 86.1911 15.2416 85.5004 15.2416C85.2702 15.2416 85.0399 15.2416 84.8097 15.1266L85.0399 14.322C85.155 14.4369 85.3853 14.4369 85.5004 14.4369C85.7306 14.4369 85.8457 14.4369 85.9609 14.322C86.076 14.2071 86.1911 14.0921 86.3062 13.8622L86.5364 13.2875L84.2341 8.22993H85.2702L86.9969 12.1381L88.7236 8.11499H89.7597Z" fill="white" stroke="white" stroke-width="0.2" stroke-miterlimit="10"/>
<path d="M90.7957 15.0117V8.11499H95.7456V15.0117H94.8247V8.9196H91.6015V15.0117H90.7957Z" fill="white" stroke="white" stroke-width="0.2" stroke-miterlimit="10"/>
<path d="M97.3572 15.0117V8.11499H98.2781V11.1036H101.732V8.11499H102.652V15.0117H101.732V11.9082H98.2781V15.0117H97.3572Z" fill="white" stroke="white" stroke-width="0.2" stroke-miterlimit="10"/>
<path d="M109.905 14.0921C109.214 14.7817 108.408 15.1266 107.372 15.1266C106.336 15.1266 105.53 14.7817 104.84 14.0921C104.149 13.4024 103.804 12.5978 103.804 11.5633C103.804 10.5288 104.149 9.72417 104.84 9.0345C105.53 8.34483 106.336 8 107.372 8C108.408 8 109.214 8.34483 109.905 9.0345C110.595 9.72417 110.941 10.5288 110.941 11.5633C110.826 12.5978 110.48 13.4024 109.905 14.0921ZM105.415 13.5173C105.876 13.9771 106.566 14.322 107.257 14.322C107.948 14.322 108.638 14.0921 109.099 13.5173C109.559 13.0576 109.905 12.3679 109.905 11.5633C109.905 10.7587 109.674 10.069 109.099 9.60923C108.638 9.14945 107.948 8.80461 107.257 8.80461C106.566 8.80461 105.876 9.0345 105.415 9.60923C104.955 10.069 104.609 10.7587 104.609 11.5633C104.609 12.3679 104.955 13.0576 105.415 13.5173Z" fill="white" stroke="white" stroke-width="0.2" stroke-miterlimit="10"/>
<path d="M114.509 15.0117V8.11499H117.042C117.617 8.11499 118.078 8.34488 118.423 8.68971C118.769 9.03455 118.999 9.49433 118.999 9.95411C118.999 10.2989 118.884 10.5288 118.769 10.8737C118.653 11.1036 118.423 11.3334 118.078 11.4484C118.423 11.5633 118.653 11.7932 118.884 12.0231C119.114 12.253 119.229 12.5978 119.229 13.0576C119.229 13.6323 118.999 14.0921 118.653 14.4369C118.193 14.7818 117.732 15.0117 117.157 15.0117H114.509ZM115.43 11.1036H117.042C117.387 11.1036 117.617 10.9886 117.848 10.7587C118.078 10.5288 118.193 10.2989 118.193 10.069C118.193 9.83916 117.963 9.49433 117.848 9.26444C117.617 9.03455 117.387 8.9196 117.042 8.9196H115.43V11.1036ZM115.43 14.2071H117.272C117.617 14.2071 117.848 14.0921 118.078 13.8622C118.308 13.6323 118.423 13.4024 118.423 13.0576C118.423 12.8277 118.308 12.4829 118.078 12.253C117.848 12.0231 117.617 11.9082 117.272 11.9082H115.545V14.2071H115.43Z" fill="white" stroke="white" stroke-width="0.2" stroke-miterlimit="10"/>
</svg>
