<svg width="165" height="48" viewBox="0 0 165 48" fill="none" xmlns="http://www.w3.org/2000/svg">
<path d="M0 23.5756C0 10.5551 10.5551 0 23.5756 0H141.169C154.189 0 164.745 10.5551 164.745 23.5756C164.745 36.596 154.189 47.1512 141.169 47.1512H23.5756C10.5551 47.1512 0 36.596 0 23.5756Z" fill="#038C73"/>
<path d="M38.5486 22.663C38.562 21.6197 38.84 20.5967 39.3564 19.6893C39.8729 18.7818 40.6112 18.0194 41.5025 17.4729C40.9363 16.6665 40.1893 16.0028 39.3208 15.5346C38.4523 15.0664 37.4863 14.8066 36.4996 14.7758C34.3946 14.5555 32.354 16.0319 31.2813 16.0319C30.1879 16.0319 28.5364 14.7977 26.7581 14.8342C25.6077 14.8713 24.4867 15.2048 23.5041 15.8024C22.5215 16.4 21.7109 17.2412 21.1512 18.244C18.7269 22.4296 20.5352 28.5809 22.8575 31.9641C24.0194 33.6208 25.3773 35.4714 27.1541 35.4058C28.8927 35.3338 29.5421 34.3002 31.6409 34.3002C33.7201 34.3002 34.3294 35.4058 36.1422 35.364C38.0079 35.3338 39.1834 33.7 40.3045 32.0276C41.1393 30.8472 41.7817 29.5425 42.2079 28.162C41.1239 27.7048 40.199 26.9396 39.5482 25.9617C38.8975 24.9838 38.5498 23.8366 38.5486 22.663Z" fill="white"/>
<path d="M35.1245 12.5508C36.1418 11.333 36.6429 9.76779 36.5216 8.1875C34.9674 8.35028 33.5318 9.09097 32.5008 10.262C31.9968 10.8341 31.6107 11.4996 31.3647 12.2206C31.1187 12.9416 31.0176 13.7038 31.0672 14.4637C31.8446 14.4717 32.6136 14.3037 33.3164 13.9724C34.0192 13.641 34.6374 13.1549 35.1245 12.5508Z" fill="white"/>
<path d="M60.5269 31.2117H54.5935L53.1687 35.4073H50.6555L56.2755 19.8848H58.8866L64.5065 35.4073H61.9505L60.5269 31.2117ZM55.2081 29.2757H59.9112L57.5927 22.4666H57.5278L55.2081 29.2757Z" fill="white"/>
<path d="M76.6437 29.7493C76.6437 33.2661 74.7561 35.5257 71.9076 35.5257C71.186 35.5633 70.4684 35.3975 69.8368 35.0474C69.2053 34.6972 68.6855 34.1768 68.3368 33.5457H68.2829V39.1511H65.9534V24.0901H68.2083V25.9724H68.2511C68.6158 25.3443 69.1445 24.8266 69.7808 24.4743C70.4171 24.122 71.1373 23.9483 71.8647 23.9717C74.7451 23.9717 76.6437 26.2422 76.6437 29.7493ZM74.2493 29.7493C74.2493 27.458 73.0619 25.9517 71.2502 25.9517C69.4703 25.9517 68.2731 27.4898 68.2731 29.7493C68.2731 32.0296 69.4703 33.5567 71.2502 33.5567C73.0619 33.5567 74.2493 32.0613 74.2493 29.7493Z" fill="white"/>
<path d="M89.1349 29.7493C89.1349 33.2661 87.2473 35.5256 84.3988 35.5256C83.6772 35.5633 82.9596 35.3975 82.3281 35.0474C81.6965 34.6972 81.1767 34.1767 80.828 33.5456H80.7741V39.1511H78.4446V24.0901H80.6994V25.9724H80.7423C81.107 25.3443 81.6356 24.8266 82.2719 24.4743C82.9083 24.122 83.6285 23.9483 84.3559 23.9717C87.2363 23.9717 89.1349 26.2422 89.1349 29.7493ZM86.7405 29.7493C86.7405 27.458 85.5531 25.9517 83.7414 25.9517C81.9615 25.9517 80.7643 27.4898 80.7643 29.7493C80.7643 32.0296 81.9615 33.5567 83.7414 33.5567C85.5531 33.5567 86.7405 32.0613 86.7405 29.7493H86.7405Z" fill="white"/>
<path d="M97.3904 31.0823C97.563 32.6217 99.0626 33.6323 101.112 33.6323C103.075 33.6323 104.488 32.6216 104.488 31.2337C104.488 30.0288 103.636 29.3074 101.619 28.813L99.6012 28.3284C96.7428 27.6399 95.4159 26.3069 95.4159 24.1438C95.4159 21.4656 97.7564 19.626 101.08 19.626C104.369 19.626 106.624 21.4656 106.7 24.1438H104.348C104.208 22.5947 102.923 21.6597 101.047 21.6597C99.1702 21.6597 97.8861 22.6057 97.8861 23.9827C97.8861 25.0801 98.7063 25.7258 100.713 26.2202L102.428 26.6401C105.621 27.3933 106.948 28.6726 106.948 30.9431C106.948 33.8471 104.629 35.666 100.939 35.666C97.487 35.666 95.1563 33.8898 95.0057 31.0822L97.3904 31.0823Z" fill="white"/>
<path d="M111.976 21.4119V24.0901H114.134V25.9297H111.976V32.1687C111.976 33.1379 112.408 33.5896 113.357 33.5896C113.613 33.5851 113.869 33.5672 114.123 33.5359V35.3645C113.696 35.4439 113.263 35.4799 112.829 35.4719C110.531 35.4719 109.635 34.6113 109.635 32.4165V25.9297H107.985V24.0901H109.635V21.4119H111.976Z" fill="white"/>
<path d="M115.384 29.7493C115.384 26.1885 117.487 23.9509 120.766 23.9509C124.057 23.9509 126.15 26.1884 126.15 29.7493C126.15 33.3198 124.068 35.5476 120.766 35.5476C117.466 35.5476 115.384 33.3198 115.384 29.7493ZM123.777 29.7493C123.777 27.3066 122.654 25.865 120.766 25.865C118.879 25.865 117.757 27.3176 117.757 29.7493C117.757 32.2017 118.879 33.6323 120.766 33.6323C122.654 33.6323 123.776 32.2017 123.776 29.7493H123.777Z" fill="white"/>
<path d="M128.071 24.0901H130.292V26.0164H130.346C130.497 25.4148 130.85 24.8831 131.347 24.5107C131.844 24.1384 132.455 23.948 133.076 23.9717C133.345 23.9708 133.612 23.9998 133.874 24.0584V26.2312C133.535 26.1279 133.182 26.0805 132.828 26.0908C132.489 26.0772 132.152 26.1367 131.839 26.2653C131.525 26.3939 131.244 26.5885 131.013 26.8359C130.783 27.0833 130.608 27.3775 130.503 27.6983C130.397 28.0191 130.362 28.359 130.4 28.6946V35.4072H128.071L128.071 24.0901Z" fill="white"/>
<path d="M144.615 32.0833C144.301 34.1377 142.295 35.5476 139.728 35.5476C136.427 35.5476 134.377 33.3418 134.377 29.803C134.377 26.2532 136.438 23.9509 139.63 23.9509C142.77 23.9509 144.745 26.1018 144.745 29.5332V30.3291H136.729V30.4695C136.692 30.886 136.744 31.3056 136.882 31.7004C137.021 32.0952 137.241 32.4561 137.53 32.7593C137.819 33.0625 138.169 33.301 138.557 33.4588C138.945 33.6167 139.363 33.6904 139.782 33.675C140.332 33.7265 140.885 33.5993 141.357 33.3125C141.829 33.0257 142.196 32.5946 142.403 32.0832L144.615 32.0833ZM136.74 28.7056H142.414C142.435 28.3311 142.378 27.9563 142.247 27.6048C142.115 27.2533 141.913 26.9326 141.651 26.6629C141.39 26.3932 141.076 26.1803 140.728 26.0375C140.38 25.8947 140.006 25.8252 139.63 25.8333C139.251 25.831 138.875 25.9037 138.524 26.0471C138.173 26.1905 137.854 26.4019 137.585 26.6689C137.316 26.9359 137.103 27.2534 136.958 27.603C136.813 27.9525 136.739 28.3273 136.74 28.7056V28.7056Z" fill="white"/>
<path d="M53.5525 11.3538H54.5526C54.7248 11.3752 54.8995 11.3608 55.0658 11.3115C55.2321 11.2622 55.3863 11.1791 55.5188 11.0674C55.6513 10.9557 55.7592 10.8178 55.8356 10.6625C55.912 10.5072 55.9553 10.3377 55.9628 10.1649C55.9628 9.47702 55.4438 9.03268 54.5636 9.03268C54.3872 9.00811 54.2077 9.01902 54.0356 9.06478C53.8635 9.11054 53.7024 9.19022 53.5617 9.29912C53.421 9.40801 53.3036 9.54391 53.2164 9.6988C53.1293 9.85368 53.0741 10.0244 53.0543 10.2009H51.9562C51.9751 9.88052 52.0599 9.56746 52.2054 9.28119C52.3509 8.99493 52.5539 8.7416 52.8018 8.53697C53.0498 8.33234 53.3373 8.18079 53.6465 8.09176C53.9557 8.00274 54.2799 7.97814 54.5991 8.0195C56.0717 8.0195 57.1086 8.84163 57.1086 10.0251C57.1121 10.4216 56.979 10.8072 56.7317 11.1177C56.4845 11.4282 56.1379 11.6447 55.7498 11.731V11.8189C56.2098 11.8393 56.6431 12.0404 56.9548 12.3784C57.2666 12.7164 57.4314 13.1637 57.4134 13.6225C57.3794 13.9524 57.2796 14.2722 57.12 14.5631C56.9605 14.854 56.7442 15.1102 56.4841 15.3168C56.2239 15.5233 55.925 15.6759 55.6049 15.7658C55.2848 15.8556 54.9499 15.8808 54.6199 15.8399C54.2892 15.8849 53.9529 15.863 53.6308 15.7755C53.3088 15.6881 53.0077 15.5369 52.7456 15.3309C52.4834 15.125 52.2655 14.8685 52.1049 14.5768C51.9442 14.285 51.8441 13.964 51.8105 13.6329H52.9257C52.9931 14.3464 53.6504 14.8067 54.6199 14.8067C55.5894 14.8067 56.2223 14.2897 56.2223 13.5609C56.2223 12.8218 55.6262 12.3665 54.5844 12.3665H53.5525V11.3538Z" fill="white"/>
<path d="M58.6804 14.0675C58.6804 13.0543 59.4382 12.4702 60.7798 12.3872L62.3087 12.2993V11.8135C62.3087 11.219 61.9158 10.8833 61.1532 10.8833C60.5313 10.8833 60.1016 11.111 59.9768 11.5089H58.8983C59.0122 10.5421 59.9254 9.922 61.2058 9.922C62.6209 9.922 63.419 10.6245 63.419 11.8135V15.6593H62.3455V14.8683H62.2573C62.0784 15.152 61.8272 15.3833 61.5294 15.5386C61.2315 15.6939 60.8977 15.7675 60.5619 15.752C60.325 15.7766 60.0855 15.7514 59.8589 15.678C59.6323 15.6047 59.4236 15.4847 59.2464 15.326C59.0691 15.1673 58.9272 14.9733 58.8297 14.7566C58.7322 14.5398 58.6814 14.3051 58.6804 14.0675ZM62.3087 13.5865V13.116L60.9303 13.2038C60.153 13.2557 59.8004 13.5194 59.8004 14.0156C59.8004 14.5222 60.2411 14.817 60.8471 14.817C61.0247 14.8349 61.204 14.8171 61.3745 14.7644C61.545 14.7118 61.7032 14.6256 61.8395 14.5108C61.9759 14.396 62.0877 14.255 62.1683 14.0962C62.2489 13.9374 62.2967 13.7641 62.3087 13.5865Z" fill="white"/>
<path d="M66.3752 10.9657V15.6593H65.2612V10.0306H68.9777V10.9656L66.3752 10.9657Z" fill="white"/>
<path d="M75.7289 12.8425C75.7289 14.6308 74.8218 15.752 73.3969 15.752C73.0471 15.7758 72.6978 15.6995 72.3901 15.532C72.0823 15.3645 71.829 15.1128 71.6599 14.8066H71.5717V17.5306H70.4578V10.0306H71.5301V10.9608H71.6134C71.7855 10.6439 72.0421 10.3805 72.3549 10.1999C72.6678 10.0193 73.0245 9.92837 73.3859 9.93724C74.8218 9.9372 75.7289 11.0535 75.7289 12.8425ZM74.5831 12.8425C74.5831 11.6535 74.0188 10.9351 73.075 10.9351C72.1373 10.9351 71.5509 11.6688 71.5509 12.8474C71.5509 14.0205 72.1373 14.7547 73.0701 14.7547C74.0188 14.7547 74.5831 14.0363 74.5831 12.8425Z" fill="white"/>
<path d="M77.2126 17.6753V16.7189C77.3331 16.7342 77.4546 16.7411 77.5761 16.7396C77.8134 16.7572 78.0489 16.6867 78.2373 16.5417C78.4257 16.3967 78.5538 16.1875 78.597 15.9541L78.6803 15.6801L76.6372 10.0306H77.8503L79.2655 14.5015H79.3536L80.7638 10.0306H81.9451L79.8408 15.8919C79.3585 17.2615 78.8248 17.7009 77.6741 17.7009C77.5811 17.7009 77.3166 17.6906 77.2126 17.6753Z" fill="white"/>
<path d="M82.8127 14.0619H83.9218C84.0308 14.5581 84.4972 14.8169 85.1496 14.8169C85.8914 14.8169 86.3468 14.491 86.3468 13.9844C86.3468 13.4418 85.938 13.183 85.1496 13.183H84.305V12.32H85.1349C85.8082 12.32 86.151 12.0618 86.151 11.5912C86.151 11.178 85.8192 10.8625 85.1349 10.8625C84.5118 10.8625 84.0565 11.1261 83.9842 11.5705H82.9107C82.9909 11.0599 83.2689 10.6011 83.6849 10.2928C84.1008 9.98455 84.6215 9.85136 85.1349 9.92192C86.4766 9.92192 87.2441 10.5268 87.2441 11.4777C87.2504 11.7425 87.1653 12.0014 87.0031 12.2112C86.8409 12.4209 86.6113 12.5688 86.3529 12.6301V12.7179C86.6606 12.7575 86.943 12.9083 87.1465 13.1418C87.3501 13.3753 87.4606 13.6751 87.4571 13.9844C87.4571 15.0544 86.5439 15.7624 85.1496 15.7624C83.9169 15.7623 82.9156 15.199 82.8127 14.0619Z" fill="white"/>
<path d="M89.0615 15.6593V10.0306H90.1657V13.9021H90.2538L92.8551 10.0307H93.9593V15.6593H92.8551V11.7671H92.7719L90.1657 15.6593L89.0615 15.6593Z" fill="white"/>
<path d="M100.042 10.9656H98.2644V15.6592H97.1492V10.9656H95.3717V10.0306H100.042V10.9656Z" fill="white"/>
<path d="M106.043 14.1395C105.891 14.6539 105.563 15.0988 105.115 15.3964C104.668 15.6941 104.13 15.8255 103.596 15.7679C103.224 15.7777 102.854 15.7067 102.513 15.5598C102.171 15.4129 101.866 15.1936 101.617 14.9172C101.369 14.6407 101.185 14.3138 101.076 13.959C100.967 13.6042 100.937 13.2301 100.988 12.8626C100.939 12.494 100.969 12.1191 101.078 11.7633C101.186 11.4074 101.37 11.079 101.617 10.8001C101.863 10.5213 102.167 10.2986 102.508 10.1471C102.848 9.99557 103.218 9.9188 103.591 9.92197C105.161 9.92197 106.11 10.992 106.11 12.7595V13.1471H102.124V13.2093C102.107 13.4159 102.132 13.6239 102.2 13.82C102.268 14.016 102.376 14.1957 102.518 14.3476C102.659 14.4994 102.831 14.6201 103.022 14.7018C103.213 14.7835 103.419 14.8243 103.627 14.8218C103.894 14.8536 104.163 14.8057 104.402 14.6842C104.641 14.5627 104.838 14.3731 104.969 14.1395L106.043 14.1395ZM102.124 12.3255H104.974C104.988 12.1367 104.962 11.9471 104.899 11.7687C104.835 11.5904 104.734 11.4274 104.604 11.29C104.473 11.1527 104.315 11.0442 104.139 10.9714C103.964 10.8986 103.776 10.8632 103.586 10.8674C103.393 10.8648 103.202 10.9007 103.023 10.9731C102.845 11.0455 102.682 11.1528 102.546 11.2887C102.41 11.4246 102.302 11.5864 102.23 11.7645C102.157 11.9426 102.121 12.1334 102.124 12.3255H102.124Z" fill="white"/>
<path d="M110.765 10.0306H113.31C114.414 10.0306 115.062 10.5885 115.062 11.4619C115.064 11.739 114.97 12.0083 114.796 12.2248C114.623 12.4412 114.38 12.5916 114.108 12.6509V12.7387C114.438 12.7595 114.747 12.9057 114.972 13.1472C115.196 13.3887 115.319 13.707 115.315 14.0364C115.315 15.0184 114.575 15.6593 113.336 15.6593H110.765V10.0306ZM111.869 10.8833V12.3408H112.974C113.647 12.3408 113.969 12.0826 113.969 11.6066C113.969 11.1677 113.688 10.8833 113.097 10.8833L111.869 10.8833ZM111.869 13.1575V14.8067H113.19C113.849 14.8067 114.201 14.5167 114.201 13.9845C114.201 13.4212 113.802 13.1575 113.051 13.1575L111.869 13.1575Z" fill="white"/>
</svg>
